{
	"asset":{
		"generator":"Khronos glTF Blender I/O v4.5.47",
		"version":"2.0"
	},
	"scene":0,
	"scenes":[
		{
			"name":"Scene",
			"nodes":[
				0,
				1,
				2,
				3
			]
		}
	],
	"nodes":[
		{
			"camera":0,
			"name":"Camera",
			"rotation":[
				-0.4212609529495239,
				0.1243143081665039,
				0.6960933208465576,
				0.5679253935813904
			],
			"translation":[
				-0.4355182647705078,
				6.975754261016846,
				6.925790786743164
			]
		},
		{
			"mesh":0,
			"name":"Cylinder",
			"rotation":[
				-0.5000000596046448,
				0.5,
				-0.5,
				0.5
			],
			"translation":[
				0,
				0,
				1.4999111890792847
			]
		},
		{
			"mesh":1,
			"name":"Cube",
			"rotation":[
				-0.4999999403953552,
				-0.49999988079071045,
				0.5000000596046448,
				0.5000001192092896
			],
			"scale":[
				0.5,
				1,
				0.20000000298023224
			],
			"translation":[
				0,
				-0.4000000059604645,
				2.3465778827667236
			]
		},
		{
			"mesh":2,
			"name":"Cube.001",
			"rotation":[
				-0.4999999403953552,
				-0.49999988079071045,
				0.5000000596046448,
				0.5000001192092896
			],
			"scale":[
				0.5,
				1,
				0.20000000298023224
			],
			"translation":[
				0,
				0.40000009536743164,
				2.206578016281128
			]
		}
	],
	"cameras":[
		{
			"name":"Camera",
			"perspective":{
				"aspectRatio":1.7777777777777777,
				"yfov":0.39959652046304894,
				"zfar":100,
				"znear":0.10000000149011612
			},
			"type":"perspective"
		}
	],
	"materials":[
		{
			"doubleSided":true,
			"name":"Material",
			"pbrMetallicRoughness":{
				"baseColorFactor":[
					0.039969202131032944,
					0.02035442180931568,
					0.011305349878966808,
					1
				],
				"metallicFactor":0,
				"roughnessFactor":0.5
			}
		},
		{
			"doubleSided":true,
			"name":"Material.002"
		}
	],
	"meshes":[
		{
			"name":"Cylinder",
			"primitives":[
				{
					"attributes":{
						"POSITION":0,
						"NORMAL":1
					},
					"indices":2,
					"material":0
				}
			]
		},
		{
			"name":"Cube.001",
			"primitives":[
				{
					"attributes":{
						"POSITION":3,
						"NORMAL":4
					},
					"indices":5,
					"material":1
				}
			]
		},
		{
			"name":"Cube.002",
			"primitives":[
				{
					"attributes":{
						"POSITION":6,
						"NORMAL":7
					},
					"indices":8,
					"material":1
				}
			]
		}
	],
	"accessors":[
		{
			"bufferView":0,
			"componentType":5126,
			"count":531,
			"max":[
				0.1538853645324707,
				1.5341408252716064,
				0.07714962959289551
			],
			"min":[
				-0.15388894081115723,
				-1.044334888458252,
				-0.09579324722290039
			],
			"type":"VEC3"
		},
		{
			"bufferView":1,
			"componentType":5126,
			"count":531,
			"type":"VEC3"
		},
		{
			"bufferView":2,
			"componentType":5123,
			"count":1188,
			"type":"SCALAR"
		},
		{
			"bufferView":3,
			"componentType":5126,
			"count":1180,
			"max":[
				0.7430592775344849,
				0.6971471309661865,
				0.1762237548828125
			],
			"min":[
				-0.7430593371391296,
				-0.2235105037689209,
				-0.17622101306915283
			],
			"type":"VEC3"
		},
		{
			"bufferView":4,
			"componentType":5126,
			"count":1180,
			"type":"VEC3"
		},
		{
			"bufferView":5,
			"componentType":5123,
			"count":7068,
			"type":"SCALAR"
		},
		{
			"bufferView":6,
			"componentType":5126,
			"count":1234,
			"max":[
				0.7430565357208252,
				0.5223867893218994,
				0.09656727313995361
			],
			"min":[
				-0.7430590391159058,
				-0.5223895907402039,
				-0.0965644121170044
			],
			"type":"VEC3"
		},
		{
			"bufferView":7,
			"componentType":5126,
			"count":1234,
			"type":"VEC3"
		},
		{
			"bufferView":8,
			"componentType":5123,
			"count":7392,
			"type":"SCALAR"
		}
	],
	"bufferViews":[
		{
			"buffer":0,
			"byteLength":6372,
			"byteOffset":0,
			"target":34962
		},
		{
			"buffer":0,
			"byteLength":6372,
			"byteOffset":6372,
			"target":34962
		},
		{
			"buffer":0,
			"byteLength":2376,
			"byteOffset":12744,
			"target":34963
		},
		{
			"buffer":0,
			"byteLength":14160,
			"byteOffset":15120,
			"target":34962
		},
		{
			"buffer":0,
			"byteLength":14160,
			"byteOffset":29280,
			"target":34962
		},
		{
			"buffer":0,
			"byteLength":14136,
			"byteOffset":43440,
			"target":34963
		},
		{
			"buffer":0,
			"byteLength":14808,
			"byteOffset":57576,
			"target":34962
		},
		{
			"buffer":0,
			"byteLength":14808,
			"byteOffset":72384,
			"target":34962
		},
		{
			"buffer":0,
			"byteLength":14784,
			"byteOffset":87192,
			"target":34963
		}
	],
	"buffers":[
		{
			"byteLength":101976,
			"uri":"arrow2.bin"
		}
	]
}
