{
	"asset":{
		"generator":"Khronos glTF Blender I/O v4.5.47",
		"version":"2.0"
	},
	"scene":0,
	"scenes":[
		{
			"name":"Scene",
			"nodes":[
				0,
				1,
				2,
				3
			]
		}
	],
	"nodes":[
		{
			"camera":0,
			"name":"Camera",
			"rotation":[
				-0.20997299253940582,
				0.3857799470424652,
				0.09062844514846802,
				0.8937962055206299
			],
			"translation":[
				7.358891487121582,
				4.958309173583984,
				6.925790786743164
			]
		},
		{
			"mesh":0,
			"name":"Cylinder",
			"translation":[
				0,
				1.8328511714935303,
				0
			]
		},
		{
			"mesh":1,
			"name":"Sphere",
			"scale":[
				-0.8362162113189697,
				-0.8362162113189697,
				-0.8362162113189697
			],
			"translation":[
				0,
				3.75,
				0
			]
		},
		{
			"mesh":2,
			"name":"Cylinder.001",
			"rotation":[
				0.6532815098762512,
				-0.27059805393218994,
				0.27059808373451233,
				0.6532815098762512
			],
			"translation":[
				0,
				2.299999952316284,
				0
			]
		}
	],
	"cameras":[
		{
			"name":"Camera",
			"perspective":{
				"aspectRatio":1.7777777777777777,
				"yfov":0.39959652046304894,
				"zfar":100,
				"znear":0.10000000149011612
			},
			"type":"perspective"
		}
	],
	"materials":[
		{
			"doubleSided":true,
			"name":"Material"
		}
	],
	"meshes":[
		{
			"name":"Mesh",
			"primitives":[
				{
					"attributes":{
						"POSITION":0,
						"NORMAL":1,
						"TEXCOORD_0":2,
						"TANGENT":3
					},
					"indices":4,
					"material":0
				}
			]
		},
		{
			"name":"Mesh",
			"primitives":[
				{
					"attributes":{
						"POSITION":5,
						"NORMAL":6,
						"TEXCOORD_0":7,
						"TANGENT":8
					},
					"indices":9,
					"material":0
				}
			]
		},
		{
			"name":"Mesh",
			"primitives":[
				{
					"attributes":{
						"POSITION":10,
						"NORMAL":11,
						"TEXCOORD_0":12,
						"TANGENT":13
					},
					"indices":14,
					"material":0
				}
			]
		}
	],
	"accessors":[
		{
			"bufferView":0,
			"componentType":5126,
			"count":12288,
			"max":[
				1.127941608428955,
				1.7612956762313843,
				1.127941608428955
			],
			"min":[
				-1.127941608428955,
				-1.7612956762313843,
				-1.127941608428955
			],
			"type":"VEC3"
		},
		{
			"bufferView":1,
			"componentType":5126,
			"count":12288,
			"type":"VEC3"
		},
		{
			"bufferView":2,
			"componentType":5126,
			"count":12288,
			"type":"VEC2"
		},
		{
			"bufferView":3,
			"componentType":5126,
			"count":12288,
			"type":"VEC4"
		},
		{
			"bufferView":4,
			"componentType":5123,
			"count":18432,
			"type":"SCALAR"
		},
		{
			"bufferView":5,
			"componentType":5126,
			"count":5760,
			"max":[
				1.0911201238632202,
				1.147372841835022,
				1.0911201238632202
			],
			"min":[
				-1.0911200046539307,
				-1.147372841835022,
				-1.0911202430725098
			],
			"type":"VEC3"
		},
		{
			"bufferView":6,
			"componentType":5126,
			"count":5760,
			"type":"VEC3"
		},
		{
			"bufferView":7,
			"componentType":5126,
			"count":5760,
			"type":"VEC2"
		},
		{
			"bufferView":8,
			"componentType":5126,
			"count":5760,
			"type":"VEC4"
		},
		{
			"bufferView":9,
			"componentType":5123,
			"count":8640,
			"type":"SCALAR"
		},
		{
			"bufferView":10,
			"componentType":5126,
			"count":3072,
			"max":[
				0.5027366876602173,
				2.300330877304077,
				0.5027366876602173
			],
			"min":[
				-0.5027366876602173,
				-2.300330877304077,
				-0.5027366876602173
			],
			"type":"VEC3"
		},
		{
			"bufferView":11,
			"componentType":5126,
			"count":3072,
			"type":"VEC3"
		},
		{
			"bufferView":12,
			"componentType":5126,
			"count":3072,
			"type":"VEC2"
		},
		{
			"bufferView":13,
			"componentType":5126,
			"count":3072,
			"type":"VEC4"
		},
		{
			"bufferView":14,
			"componentType":5123,
			"count":4608,
			"type":"SCALAR"
		}
	],
	"bufferViews":[
		{
			"buffer":0,
			"byteLength":147456,
			"byteOffset":0,
			"target":34962
		},
		{
			"buffer":0,
			"byteLength":147456,
			"byteOffset":147456,
			"target":34962
		},
		{
			"buffer":0,
			"byteLength":98304,
			"byteOffset":294912,
			"target":34962
		},
		{
			"buffer":0,
			"byteLength":196608,
			"byteOffset":393216,
			"target":34962
		},
		{
			"buffer":0,
			"byteLength":36864,
			"byteOffset":589824,
			"target":34963
		},
		{
			"buffer":0,
			"byteLength":69120,
			"byteOffset":626688,
			"target":34962
		},
		{
			"buffer":0,
			"byteLength":69120,
			"byteOffset":695808,
			"target":34962
		},
		{
			"buffer":0,
			"byteLength":46080,
			"byteOffset":764928,
			"target":34962
		},
		{
			"buffer":0,
			"byteLength":92160,
			"byteOffset":811008,
			"target":34962
		},
		{
			"buffer":0,
			"byteLength":17280,
			"byteOffset":903168,
			"target":34963
		},
		{
			"buffer":0,
			"byteLength":36864,
			"byteOffset":920448,
			"target":34962
		},
		{
			"buffer":0,
			"byteLength":36864,
			"byteOffset":957312,
			"target":34962
		},
		{
			"buffer":0,
			"byteLength":24576,
			"byteOffset":994176,
			"target":34962
		},
		{
			"buffer":0,
			"byteLength":49152,
			"byteOffset":1018752,
			"target":34962
		},
		{
			"buffer":0,
			"byteLength":9216,
			"byteOffset":1067904,
			"target":34963
		}
	],
	"buffers":[
		{
			"byteLength":1077120,
			"uri":"enemy2.bin"
		}
	]
}
