{
	"asset":{
		"generator":"Khronos glTF Blender I/O v4.5.48",
		"version":"2.0"
	},
	"scene":0,
	"scenes":[
		{
			"name":"Scene",
			"nodes":[
				0,
				1
			]
		}
	],
	"nodes":[
		{
			"mesh":0,
			"name":"Cube",
			"scale":[
				2,
				1,
				2
			],
			"translation":[
				0,
				0.9999998211860657,
				0
			]
		},
		{
			"camera":0,
			"name":"Camera",
			"rotation":[
				-0.20997299253940582,
				0.3857799470424652,
				0.09062844514846802,
				0.8937962055206299
			],
			"translation":[
				7.358891487121582,
				4.958309173583984,
				6.925790786743164
			]
		}
	],
	"cameras":[
		{
			"name":"Camera",
			"perspective":{
				"aspectRatio":1.7777777777777777,
				"yfov":0.39959652046304894,
				"zfar":100,
				"znear":0.10000000149011612
			},
			"type":"perspective"
		}
	],
	"materials":[
		{
			"doubleSided":true,
			"name":"Material",
			"pbrMetallicRoughness":{
				"baseColorTexture":{
					"index":0
				},
				"metallicFactor":0.5,
				"roughnessFactor":0.800000011920929
			}
		}
	],
	"meshes":[
		{
			"name":"Cube",
			"primitives":[
				{
					"attributes":{
						"POSITION":0,
						"NORMAL":1,
						"TEXCOORD_0":2,
						"TANGENT":3
					},
					"indices":4,
					"material":0
				}
			]
		}
	],
	"textures":[
		{
			"sampler":0,
			"source":0
		}
	],
	"images":[
		{
			"mimeType":"image/png",
			"name":"magicTowerBake",
			"uri":"tex/magicTowerBake.png"
		}
	],
	"accessors":[
		{
			"bufferView":0,
			"componentType":5126,
			"count":2112,
			"max":[
				0.5,
				4.299178123474121,
				0.5392181873321533
			],
			"min":[
				-0.5,
				-1,
				-0.5
			],
			"type":"VEC3"
		},
		{
			"bufferView":1,
			"componentType":5126,
			"count":2112,
			"type":"VEC3"
		},
		{
			"bufferView":2,
			"componentType":5126,
			"count":2112,
			"type":"VEC2"
		},
		{
			"bufferView":3,
			"componentType":5126,
			"count":2112,
			"type":"VEC4"
		},
		{
			"bufferView":4,
			"componentType":5123,
			"count":3102,
			"type":"SCALAR"
		}
	],
	"bufferViews":[
		{
			"buffer":0,
			"byteLength":25344,
			"byteOffset":0,
			"target":34962
		},
		{
			"buffer":0,
			"byteLength":25344,
			"byteOffset":25344,
			"target":34962
		},
		{
			"buffer":0,
			"byteLength":16896,
			"byteOffset":50688,
			"target":34962
		},
		{
			"buffer":0,
			"byteLength":33792,
			"byteOffset":67584,
			"target":34962
		},
		{
			"buffer":0,
			"byteLength":6204,
			"byteOffset":101376,
			"target":34963
		}
	],
	"samplers":[
		{
			"magFilter":9729,
			"minFilter":9987,
			"wrapS":33071,
			"wrapT":33071
		}
	],
	"buffers":[
		{
			"byteLength":107580,
			"uri":"magicTower.bin"
		}
	]
}
