{
	"asset":{
		"generator":"Khronos glTF Blender I/O v4.5.48",
		"version":"2.0"
	},
	"scene":0,
	"scenes":[
		{
			"name":"Scene",
			"nodes":[
				0,
				1,
				2,
				3,
				4,
				5,
				6,
				7,
				8,
				9,
				10,
				11
			]
		}
	],
	"nodes":[
		{
			"mesh":0,
			"name":"structure",
			"scale":[
				2,
				2,
				1
			],
			"translation":[
				0,
				0,
				1
			]
		},
		{
			"camera":0,
			"name":"Camera",
			"rotation":[
				0.483536034822464,
				0.20870360732078552,
				0.33687159419059753,
				0.7804827094078064
			],
			"translation":[
				7.358891487121582,
				-6.925790786743164,
				4.958309173583984
			]
		},
		{
			"mesh":1,
			"name":"door",
			"scale":[
				2,
				2,
				1
			],
			"translation":[
				0,
				-0.019999999552965164,
				1
			]
		},
		{
			"mesh":2,
			"name":"window",
			"scale":[
				2,
				2,
				1
			],
			"translation":[
				0,
				-0.019999999552965164,
				1
			]
		},
		{
			"mesh":3,
			"name":"turretWindow",
			"rotation":[
				-0.5896463394165039,
				0.3902783989906311,
				0.5896462798118591,
				0.3902783691883087
			],
			"translation":[
				1.1200001239776611,
				-1.1100000143051147,
				2.6600000858306885
			]
		},
		{
			"mesh":4,
			"name":"wallwindow1",
			"scale":[
				0.42000001668930054,
				1.059999942779541,
				1
			],
			"translation":[
				-1.1100001335144043,
				-1.5800000429153442,
				0.7300000190734863
			]
		},
		{
			"mesh":5,
			"name":"wallwindow2",
			"scale":[
				0.42000001668930054,
				1.059999942779541,
				1
			],
			"translation":[
				-1.5600000619888306,
				-1.5800000429153442,
				0.7300000190734863
			]
		},
		{
			"mesh":6,
			"name":"windowframe",
			"scale":[
				2,
				2,
				1
			],
			"translation":[
				0,
				0,
				1
			]
		},
		{
			"mesh":7,
			"name":"wallwindow3",
			"rotation":[
				0,
				0,
				0.7071068286895752,
				0.7071068286895752
			],
			"scale":[
				0.42000001668930054,
				0.9954932928085327,
				0.7208961844444275
			],
			"translation":[
				1.6099997758865356,
				0.9753905534744263,
				1.2940675020217896
			]
		},
		{
			"mesh":8,
			"name":"wallwindow4",
			"rotation":[
				0,
				0,
				0.7071068286895752,
				0.7071068286895752
			],
			"scale":[
				0.42000001668930054,
				0.9954932928085327,
				0.7208961844444275
			],
			"translation":[
				1.6099997758865356,
				1.395390510559082,
				1.2940675020217896
			]
		},
		{
			"mesh":9,
			"name":"wallwindow6",
			"rotation":[
				0,
				0,
				0.7071068286895752,
				0.7071068286895752
			],
			"scale":[
				0.42000001668930054,
				0.9954932928085327,
				0.7208961844444275
			],
			"translation":[
				1.6099997758865356,
				0.5586644411087036,
				1.2940675020217896
			]
		},
		{
			"mesh":10,
			"name":"wallwindow5",
			"rotation":[
				0,
				0,
				0.7071068286895752,
				0.7071068286895752
			],
			"scale":[
				0.42000001668930054,
				0.9954932928085327,
				0.7208961844444275
			],
			"translation":[
				1.6099997758865356,
				0.13866442441940308,
				1.2940675020217896
			]
		}
	],
	"cameras":[
		{
			"name":"Camera",
			"perspective":{
				"aspectRatio":1.7777777777777777,
				"yfov":0.39959652046304894,
				"zfar":100,
				"znear":0.10000000149011612
			},
			"type":"perspective"
		}
	],
	"materials":[
		{
			"doubleSided":true,
			"name":"stone"
		},
		{
			"doubleSided":true,
			"name":"wood-light"
		},
		{
			"doubleSided":true,
			"name":"glass"
		},
		{
			"doubleSided":true,
			"name":"dark wood"
		},
		{
			"doubleSided":true,
			"name":"glass.001"
		},
		{
			"doubleSided":true,
			"name":"glass.002"
		},
		{
			"doubleSided":true,
			"name":"glass.003"
		},
		{
			"doubleSided":true,
			"name":"glass.004"
		}
	],
	"meshes":[
		{
			"name":"Cube",
			"primitives":[
				{
					"attributes":{
						"POSITION":0,
						"NORMAL":1,
						"TEXCOORD_0":2,
						"TANGENT":3
					},
					"indices":4,
					"material":0
				}
			]
		},
		{
			"name":"Cube.001",
			"primitives":[
				{
					"attributes":{
						"POSITION":5,
						"NORMAL":6,
						"TEXCOORD_0":7,
						"TANGENT":8
					},
					"indices":9,
					"material":1
				}
			]
		},
		{
			"name":"Cube.002",
			"primitives":[
				{
					"attributes":{
						"POSITION":10,
						"NORMAL":11,
						"TEXCOORD_0":12,
						"TANGENT":13
					},
					"indices":14,
					"material":2
				}
			]
		},
		{
			"name":"Cylinder",
			"primitives":[
				{
					"attributes":{
						"POSITION":15,
						"NORMAL":16,
						"TEXCOORD_0":17
					},
					"indices":18,
					"material":2
				}
			]
		},
		{
			"name":"Cube.003",
			"primitives":[
				{
					"attributes":{
						"POSITION":19,
						"NORMAL":20,
						"TEXCOORD_0":21,
						"TANGENT":22
					},
					"indices":23,
					"material":2
				}
			]
		},
		{
			"name":"Cube.004",
			"primitives":[
				{
					"attributes":{
						"POSITION":24,
						"NORMAL":25,
						"TEXCOORD_0":26,
						"TANGENT":27
					},
					"indices":23,
					"material":2
				}
			]
		},
		{
			"name":"Cube.005",
			"primitives":[
				{
					"attributes":{
						"POSITION":28,
						"NORMAL":29,
						"TEXCOORD_0":30,
						"TANGENT":31
					},
					"indices":32,
					"material":3
				}
			]
		},
		{
			"name":"Cube.006",
			"primitives":[
				{
					"attributes":{
						"POSITION":33,
						"NORMAL":34,
						"TEXCOORD_0":35,
						"TANGENT":36
					},
					"indices":23,
					"material":4
				}
			]
		},
		{
			"name":"Cube.007",
			"primitives":[
				{
					"attributes":{
						"POSITION":37,
						"NORMAL":38,
						"TEXCOORD_0":39,
						"TANGENT":40
					},
					"indices":23,
					"material":5
				}
			]
		},
		{
			"name":"Cube.008",
			"primitives":[
				{
					"attributes":{
						"POSITION":41,
						"NORMAL":42,
						"TEXCOORD_0":43,
						"TANGENT":44
					},
					"indices":23,
					"material":6
				}
			]
		},
		{
			"name":"Cube.009",
			"primitives":[
				{
					"attributes":{
						"POSITION":45,
						"NORMAL":46,
						"TEXCOORD_0":47,
						"TANGENT":48
					},
					"indices":23,
					"material":7
				}
			]
		}
	],
	"accessors":[
		{
			"bufferView":0,
			"componentType":5126,
			"count":1136,
			"max":[
				1.0049999952316284,
				1.0049999952316284,
				3.3023359775543213
			],
			"min":[
				-1.0049999952316284,
				-1.044986605644226,
				-1.0050517320632935
			],
			"type":"VEC3"
		},
		{
			"bufferView":1,
			"componentType":5126,
			"count":1136,
			"type":"VEC3"
		},
		{
			"bufferView":2,
			"componentType":5126,
			"count":1136,
			"type":"VEC2"
		},
		{
			"bufferView":3,
			"componentType":5126,
			"count":1136,
			"type":"VEC4"
		},
		{
			"bufferView":4,
			"componentType":5123,
			"count":1728,
			"type":"SCALAR"
		},
		{
			"bufferView":5,
			"componentType":5126,
			"count":32,
			"max":[
				0.2863076329231262,
				-1.0027474164962769,
				-0.5750653743743896
			],
			"min":[
				-0.2863076329231262,
				-1.0127474069595337,
				-0.9916403889656067
			],
			"type":"VEC3"
		},
		{
			"bufferView":6,
			"componentType":5126,
			"count":32,
			"type":"VEC3"
		},
		{
			"bufferView":7,
			"componentType":5126,
			"count":32,
			"type":"VEC2"
		},
		{
			"bufferView":8,
			"componentType":5126,
			"count":32,
			"type":"VEC4"
		},
		{
			"bufferView":9,
			"componentType":5123,
			"count":60,
			"type":"SCALAR"
		},
		{
			"bufferView":10,
			"componentType":5126,
			"count":106,
			"max":[
				0.2863076329231262,
				-1.0027474164962769,
				0.07018041610717773
			],
			"min":[
				-0.2863076329231262,
				-1.0127474069595337,
				-0.5750653743743896
			],
			"type":"VEC3"
		},
		{
			"bufferView":11,
			"componentType":5126,
			"count":106,
			"type":"VEC3"
		},
		{
			"bufferView":12,
			"componentType":5126,
			"count":106,
			"type":"VEC2"
		},
		{
			"bufferView":13,
			"componentType":5126,
			"count":106,
			"type":"VEC4"
		},
		{
			"bufferView":14,
			"componentType":5123,
			"count":204,
			"type":"SCALAR"
		},
		{
			"bufferView":15,
			"componentType":5126,
			"count":384,
			"max":[
				0.25504085421562195,
				0.25504085421562195,
				0.3047487437725067
			],
			"min":[
				-0.25504085421562195,
				-0.25504085421562195,
				-0.3047487437725067
			],
			"type":"VEC3"
		},
		{
			"bufferView":16,
			"componentType":5126,
			"count":384,
			"type":"VEC3"
		},
		{
			"bufferView":17,
			"componentType":5126,
			"count":384,
			"type":"VEC2"
		},
		{
			"bufferView":18,
			"componentType":5123,
			"count":744,
			"type":"SCALAR"
		},
		{
			"bufferView":19,
			"componentType":5126,
			"count":48,
			"max":[
				0.41788676381111145,
				0.41788676381111145,
				0.41788676381111145
			],
			"min":[
				-0.41788676381111145,
				-0.41788676381111145,
				-0.41788676381111145
			],
			"type":"VEC3"
		},
		{
			"bufferView":20,
			"componentType":5126,
			"count":48,
			"type":"VEC3"
		},
		{
			"bufferView":21,
			"componentType":5126,
			"count":48,
			"type":"VEC2"
		},
		{
			"bufferView":22,
			"componentType":5126,
			"count":48,
			"type":"VEC4"
		},
		{
			"bufferView":23,
			"componentType":5123,
			"count":72,
			"type":"SCALAR"
		},
		{
			"bufferView":24,
			"componentType":5126,
			"count":48,
			"max":[
				0.41788676381111145,
				0.41788676381111145,
				0.41788676381111145
			],
			"min":[
				-0.41788676381111145,
				-0.41788676381111145,
				-0.41788676381111145
			],
			"type":"VEC3"
		},
		{
			"bufferView":25,
			"componentType":5126,
			"count":48,
			"type":"VEC3"
		},
		{
			"bufferView":26,
			"componentType":5126,
			"count":48,
			"type":"VEC2"
		},
		{
			"bufferView":27,
			"componentType":5126,
			"count":48,
			"type":"VEC4"
		},
		{
			"bufferView":28,
			"componentType":5126,
			"count":126,
			"max":[
				0.3223174214363098,
				-1.0027474164962769,
				0.10713759064674377
			],
			"min":[
				-0.3223174214363098,
				-1.0127474069595337,
				-0.9676862955093384
			],
			"type":"VEC3"
		},
		{
			"bufferView":29,
			"componentType":5126,
			"count":126,
			"type":"VEC3"
		},
		{
			"bufferView":30,
			"componentType":5126,
			"count":126,
			"type":"VEC2"
		},
		{
			"bufferView":31,
			"componentType":5126,
			"count":126,
			"type":"VEC4"
		},
		{
			"bufferView":32,
			"componentType":5123,
			"count":240,
			"type":"SCALAR"
		},
		{
			"bufferView":33,
			"componentType":5126,
			"count":48,
			"max":[
				0.41788676381111145,
				0.41788676381111145,
				0.41788676381111145
			],
			"min":[
				-0.41788676381111145,
				-0.41788676381111145,
				-0.41788676381111145
			],
			"type":"VEC3"
		},
		{
			"bufferView":34,
			"componentType":5126,
			"count":48,
			"type":"VEC3"
		},
		{
			"bufferView":35,
			"componentType":5126,
			"count":48,
			"type":"VEC2"
		},
		{
			"bufferView":36,
			"componentType":5126,
			"count":48,
			"type":"VEC4"
		},
		{
			"bufferView":37,
			"componentType":5126,
			"count":48,
			"max":[
				0.41788676381111145,
				0.41788676381111145,
				0.41788676381111145
			],
			"min":[
				-0.41788676381111145,
				-0.41788676381111145,
				-0.41788676381111145
			],
			"type":"VEC3"
		},
		{
			"bufferView":38,
			"componentType":5126,
			"count":48,
			"type":"VEC3"
		},
		{
			"bufferView":39,
			"componentType":5126,
			"count":48,
			"type":"VEC2"
		},
		{
			"bufferView":40,
			"componentType":5126,
			"count":48,
			"type":"VEC4"
		},
		{
			"bufferView":41,
			"componentType":5126,
			"count":48,
			"max":[
				0.41788676381111145,
				0.41788676381111145,
				0.41788676381111145
			],
			"min":[
				-0.41788676381111145,
				-0.41788676381111145,
				-0.41788676381111145
			],
			"type":"VEC3"
		},
		{
			"bufferView":42,
			"componentType":5126,
			"count":48,
			"type":"VEC3"
		},
		{
			"bufferView":43,
			"componentType":5126,
			"count":48,
			"type":"VEC2"
		},
		{
			"bufferView":44,
			"componentType":5126,
			"count":48,
			"type":"VEC4"
		},
		{
			"bufferView":45,
			"componentType":5126,
			"count":48,
			"max":[
				0.41788676381111145,
				0.41788676381111145,
				0.41788676381111145
			],
			"min":[
				-0.41788676381111145,
				-0.41788676381111145,
				-0.41788676381111145
			],
			"type":"VEC3"
		},
		{
			"bufferView":46,
			"componentType":5126,
			"count":48,
			"type":"VEC3"
		},
		{
			"bufferView":47,
			"componentType":5126,
			"count":48,
			"type":"VEC2"
		},
		{
			"bufferView":48,
			"componentType":5126,
			"count":48,
			"type":"VEC4"
		}
	],
	"bufferViews":[
		{
			"buffer":0,
			"byteLength":13632,
			"byteOffset":0,
			"target":34962
		},
		{
			"buffer":0,
			"byteLength":13632,
			"byteOffset":13632,
			"target":34962
		},
		{
			"buffer":0,
			"byteLength":9088,
			"byteOffset":27264,
			"target":34962
		},
		{
			"buffer":0,
			"byteLength":18176,
			"byteOffset":36352,
			"target":34962
		},
		{
			"buffer":0,
			"byteLength":3456,
			"byteOffset":54528,
			"target":34963
		},
		{
			"buffer":0,
			"byteLength":384,
			"byteOffset":57984,
			"target":34962
		},
		{
			"buffer":0,
			"byteLength":384,
			"byteOffset":58368,
			"target":34962
		},
		{
			"buffer":0,
			"byteLength":256,
			"byteOffset":58752,
			"target":34962
		},
		{
			"buffer":0,
			"byteLength":512,
			"byteOffset":59008,
			"target":34962
		},
		{
			"buffer":0,
			"byteLength":120,
			"byteOffset":59520,
			"target":34963
		},
		{
			"buffer":0,
			"byteLength":1272,
			"byteOffset":59640,
			"target":34962
		},
		{
			"buffer":0,
			"byteLength":1272,
			"byteOffset":60912,
			"target":34962
		},
		{
			"buffer":0,
			"byteLength":848,
			"byteOffset":62184,
			"target":34962
		},
		{
			"buffer":0,
			"byteLength":1696,
			"byteOffset":63032,
			"target":34962
		},
		{
			"buffer":0,
			"byteLength":408,
			"byteOffset":64728,
			"target":34963
		},
		{
			"buffer":0,
			"byteLength":4608,
			"byteOffset":65136,
			"target":34962
		},
		{
			"buffer":0,
			"byteLength":4608,
			"byteOffset":69744,
			"target":34962
		},
		{
			"buffer":0,
			"byteLength":3072,
			"byteOffset":74352,
			"target":34962
		},
		{
			"buffer":0,
			"byteLength":1488,
			"byteOffset":77424,
			"target":34963
		},
		{
			"buffer":0,
			"byteLength":576,
			"byteOffset":78912,
			"target":34962
		},
		{
			"buffer":0,
			"byteLength":576,
			"byteOffset":79488,
			"target":34962
		},
		{
			"buffer":0,
			"byteLength":384,
			"byteOffset":80064,
			"target":34962
		},
		{
			"buffer":0,
			"byteLength":768,
			"byteOffset":80448,
			"target":34962
		},
		{
			"buffer":0,
			"byteLength":144,
			"byteOffset":81216,
			"target":34963
		},
		{
			"buffer":0,
			"byteLength":576,
			"byteOffset":81360,
			"target":34962
		},
		{
			"buffer":0,
			"byteLength":576,
			"byteOffset":81936,
			"target":34962
		},
		{
			"buffer":0,
			"byteLength":384,
			"byteOffset":82512,
			"target":34962
		},
		{
			"buffer":0,
			"byteLength":768,
			"byteOffset":82896,
			"target":34962
		},
		{
			"buffer":0,
			"byteLength":1512,
			"byteOffset":83664,
			"target":34962
		},
		{
			"buffer":0,
			"byteLength":1512,
			"byteOffset":85176,
			"target":34962
		},
		{
			"buffer":0,
			"byteLength":1008,
			"byteOffset":86688,
			"target":34962
		},
		{
			"buffer":0,
			"byteLength":2016,
			"byteOffset":87696,
			"target":34962
		},
		{
			"buffer":0,
			"byteLength":480,
			"byteOffset":89712,
			"target":34963
		},
		{
			"buffer":0,
			"byteLength":576,
			"byteOffset":90192,
			"target":34962
		},
		{
			"buffer":0,
			"byteLength":576,
			"byteOffset":90768,
			"target":34962
		},
		{
			"buffer":0,
			"byteLength":384,
			"byteOffset":91344,
			"target":34962
		},
		{
			"buffer":0,
			"byteLength":768,
			"byteOffset":91728,
			"target":34962
		},
		{
			"buffer":0,
			"byteLength":576,
			"byteOffset":92496,
			"target":34962
		},
		{
			"buffer":0,
			"byteLength":576,
			"byteOffset":93072,
			"target":34962
		},
		{
			"buffer":0,
			"byteLength":384,
			"byteOffset":93648,
			"target":34962
		},
		{
			"buffer":0,
			"byteLength":768,
			"byteOffset":94032,
			"target":34962
		},
		{
			"buffer":0,
			"byteLength":576,
			"byteOffset":94800,
			"target":34962
		},
		{
			"buffer":0,
			"byteLength":576,
			"byteOffset":95376,
			"target":34962
		},
		{
			"buffer":0,
			"byteLength":384,
			"byteOffset":95952,
			"target":34962
		},
		{
			"buffer":0,
			"byteLength":768,
			"byteOffset":96336,
			"target":34962
		},
		{
			"buffer":0,
			"byteLength":576,
			"byteOffset":97104,
			"target":34962
		},
		{
			"buffer":0,
			"byteLength":576,
			"byteOffset":97680,
			"target":34962
		},
		{
			"buffer":0,
			"byteLength":384,
			"byteOffset":98256,
			"target":34962
		},
		{
			"buffer":0,
			"byteLength":768,
			"byteOffset":98640,
			"target":34962
		}
	],
	"buffers":[
		{
			"byteLength":99408,
			"uri":"playerBase.bin"
		}
	]
}
