{
	"asset":{
		"generator":"Khronos glTF Blender I/O v4.5.48",
		"version":"2.0"
	},
	"scene":0,
	"scenes":[
		{
			"name":"Scene",
			"nodes":[
				0,
				1,
				2,
				3,
				4,
				5,
				6,
				7,
				8,
				9,
				10,
				11
			]
		}
	],
	"nodes":[
		{
			"mesh":0,
			"name":"structure",
			"scale":[
				2,
				1,
				2
			],
			"translation":[
				0,
				1,
				0
			]
		},
		{
			"camera":0,
			"name":"Camera",
			"rotation":[
				-0.20997299253940582,
				0.3857799470424652,
				0.09062844514846802,
				0.8937962055206299
			],
			"translation":[
				7.358891487121582,
				4.958309173583984,
				6.925790786743164
			]
		},
		{
			"mesh":1,
			"name":"door",
			"scale":[
				2,
				1,
				2
			],
			"translation":[
				0,
				1,
				0.019999999552965164
			]
		},
		{
			"mesh":2,
			"name":"window",
			"scale":[
				2,
				1,
				2
			],
			"translation":[
				0,
				1,
				0.019999999552965164
			]
		},
		{
			"mesh":3,
			"name":"turretWindow",
			"rotation":[
				-0.5896463394165039,
				0.5896462798118591,
				-0.3902783989906311,
				0.3902783691883087
			],
			"translation":[
				1.1200001239776611,
				2.6600000858306885,
				1.1100000143051147
			]
		},
		{
			"mesh":4,
			"name":"wallwindow1",
			"scale":[
				0.42000001668930054,
				1,
				1.059999942779541
			],
			"translation":[
				-1.1100001335144043,
				0.7300000190734863,
				1.5800000429153442
			]
		},
		{
			"mesh":5,
			"name":"wallwindow2",
			"scale":[
				0.42000001668930054,
				1,
				1.059999942779541
			],
			"translation":[
				-1.5600000619888306,
				0.7300000190734863,
				1.5800000429153442
			]
		},
		{
			"mesh":6,
			"name":"windowframe",
			"scale":[
				2,
				1,
				2
			],
			"translation":[
				0,
				1,
				0
			]
		},
		{
			"mesh":7,
			"name":"wallwindow3",
			"rotation":[
				0,
				0.7071068286895752,
				0,
				0.7071068286895752
			],
			"scale":[
				0.42000001668930054,
				0.7208961844444275,
				0.9954932928085327
			],
			"translation":[
				1.6099997758865356,
				1.2940675020217896,
				-0.9753905534744263
			]
		},
		{
			"mesh":8,
			"name":"wallwindow4",
			"rotation":[
				0,
				0.7071068286895752,
				0,
				0.7071068286895752
			],
			"scale":[
				0.42000001668930054,
				0.7208961844444275,
				0.9954932928085327
			],
			"translation":[
				1.6099997758865356,
				1.2940675020217896,
				-1.395390510559082
			]
		},
		{
			"mesh":9,
			"name":"wallwindow6",
			"rotation":[
				0,
				0.7071068286895752,
				0,
				0.7071068286895752
			],
			"scale":[
				0.42000001668930054,
				0.7208961844444275,
				0.9954932928085327
			],
			"translation":[
				1.6099997758865356,
				1.2940675020217896,
				-0.5586644411087036
			]
		},
		{
			"mesh":10,
			"name":"wallwindow5",
			"rotation":[
				0,
				0.7071068286895752,
				0,
				0.7071068286895752
			],
			"scale":[
				0.42000001668930054,
				0.7208961844444275,
				0.9954932928085327
			],
			"translation":[
				1.6099997758865356,
				1.2940675020217896,
				-0.13866442441940308
			]
		}
	],
	"cameras":[
		{
			"name":"Camera",
			"perspective":{
				"aspectRatio":1.7777777777777777,
				"yfov":0.39959652046304894,
				"zfar":100,
				"znear":0.10000000149011612
			},
			"type":"perspective"
		}
	],
	"materials":[
		{
			"doubleSided":true,
			"name":"stone",
			"pbrMetallicRoughness":{
				"baseColorTexture":{
					"index":0
				},
				"metallicFactor":0
			}
		},
		{
			"doubleSided":true,
			"name":"wood-light",
			"pbrMetallicRoughness":{
				"baseColorTexture":{
					"index":1
				},
				"metallicFactor":0,
				"roughnessFactor":0.800000011920929
			}
		},
		{
			"doubleSided":true,
			"name":"glass.002",
			"pbrMetallicRoughness":{
				"baseColorTexture":{
					"index":2
				},
				"metallicFactor":0.5,
				"roughnessFactor":0
			}
		},
		{
			"doubleSided":true,
			"name":"glass",
			"pbrMetallicRoughness":{
				"baseColorTexture":{
					"index":3
				},
				"metallicFactor":0.5,
				"roughnessFactor":0
			}
		},
		{
			"doubleSided":true,
			"name":"glass.001",
			"pbrMetallicRoughness":{
				"baseColorTexture":{
					"index":4
				},
				"metallicFactor":0.5,
				"roughnessFactor":0
			}
		},
		{
			"doubleSided":true,
			"name":"dark wood",
			"pbrMetallicRoughness":{
				"baseColorTexture":{
					"index":5
				},
				"metallicFactor":0
			}
		}
	],
	"meshes":[
		{
			"name":"Cube",
			"primitives":[
				{
					"attributes":{
						"POSITION":0,
						"NORMAL":1,
						"TEXCOORD_0":2,
						"TANGENT":3
					},
					"indices":4,
					"material":0
				}
			]
		},
		{
			"name":"Cube.001",
			"primitives":[
				{
					"attributes":{
						"POSITION":5,
						"NORMAL":6,
						"TEXCOORD_0":7,
						"TANGENT":8
					},
					"indices":9,
					"material":1
				}
			]
		},
		{
			"name":"Cube.002",
			"primitives":[
				{
					"attributes":{
						"POSITION":10,
						"NORMAL":11,
						"TEXCOORD_0":12,
						"TANGENT":13
					},
					"indices":14,
					"material":2
				}
			]
		},
		{
			"name":"Cylinder",
			"primitives":[
				{
					"attributes":{
						"POSITION":15,
						"NORMAL":16,
						"TEXCOORD_0":17,
						"TANGENT":18
					},
					"indices":19,
					"material":3
				}
			]
		},
		{
			"name":"Cube.003",
			"primitives":[
				{
					"attributes":{
						"POSITION":20,
						"NORMAL":21,
						"TEXCOORD_0":22,
						"TANGENT":23
					},
					"indices":24,
					"material":4
				}
			]
		},
		{
			"name":"Cube.004",
			"primitives":[
				{
					"attributes":{
						"POSITION":25,
						"NORMAL":26,
						"TEXCOORD_0":27,
						"TANGENT":28
					},
					"indices":24,
					"material":4
				}
			]
		},
		{
			"name":"Cube.005",
			"primitives":[
				{
					"attributes":{
						"POSITION":29,
						"NORMAL":30,
						"TEXCOORD_0":31,
						"TANGENT":32
					},
					"indices":33,
					"material":5
				}
			]
		},
		{
			"name":"Cube.006",
			"primitives":[
				{
					"attributes":{
						"POSITION":34,
						"NORMAL":35,
						"TEXCOORD_0":36,
						"TANGENT":37
					},
					"indices":24,
					"material":4
				}
			]
		},
		{
			"name":"Cube.007",
			"primitives":[
				{
					"attributes":{
						"POSITION":38,
						"NORMAL":39,
						"TEXCOORD_0":40,
						"TANGENT":41
					},
					"indices":24,
					"material":4
				}
			]
		},
		{
			"name":"Cube.008",
			"primitives":[
				{
					"attributes":{
						"POSITION":42,
						"NORMAL":43,
						"TEXCOORD_0":44,
						"TANGENT":45
					},
					"indices":24,
					"material":4
				}
			]
		},
		{
			"name":"Cube.009",
			"primitives":[
				{
					"attributes":{
						"POSITION":46,
						"NORMAL":47,
						"TEXCOORD_0":48,
						"TANGENT":49
					},
					"indices":24,
					"material":4
				}
			]
		}
	],
	"textures":[
		{
			"sampler":0,
			"source":0
		},
		{
			"sampler":0,
			"source":1
		},
		{
			"sampler":0,
			"source":2
		},
		{
			"sampler":0,
			"source":3
		},
		{
			"sampler":0,
			"source":4
		},
		{
			"sampler":1,
			"source":5
		}
	],
	"images":[
		{
			"mimeType":"image/png",
			"name":"bake-str-diff",
			"uri":"tex/bake-str-diff.png"
		},
		{
			"mimeType":"image/png",
			"name":"bake-woodlight.001",
			"uri":"tex/bake-woodlight.001.png"
		},
		{
			"mimeType":"image/png",
			"name":"bake-window-arch",
			"uri":"tex/bake-window-arch.png"
		},
		{
			"mimeType":"image/png",
			"name":"bake-window-turret.001",
			"uri":"tex/bake-window-turret.001.png"
		},
		{
			"mimeType":"image/png",
			"name":"bake-window-sq",
			"uri":"tex/bake-window-sq.exr"
		},
		{
			"mimeType":"image/png",
			"name":"bake-wooddark",
			"uri":"tex/bake-wooddark.exr"
		}
	],
	"accessors":[
		{
			"bufferView":0,
			"componentType":5126,
			"count":1482,
			"max":[
				1.0049999952316284,
				3.3023359775543213,
				1.044986605644226
			],
			"min":[
				-1.0049999952316284,
				-1.0050517320632935,
				-1.0049999952316284
			],
			"type":"VEC3"
		},
		{
			"bufferView":1,
			"componentType":5126,
			"count":1482,
			"type":"VEC3"
		},
		{
			"bufferView":2,
			"componentType":5126,
			"count":1482,
			"type":"VEC2"
		},
		{
			"bufferView":3,
			"componentType":5126,
			"count":1482,
			"type":"VEC4"
		},
		{
			"bufferView":4,
			"componentType":5123,
			"count":1728,
			"type":"SCALAR"
		},
		{
			"bufferView":5,
			"componentType":5126,
			"count":32,
			"max":[
				0.2863076329231262,
				-0.5750653743743896,
				1.0127474069595337
			],
			"min":[
				-0.2863076329231262,
				-0.9916403889656067,
				1.0027474164962769
			],
			"type":"VEC3"
		},
		{
			"bufferView":6,
			"componentType":5126,
			"count":32,
			"type":"VEC3"
		},
		{
			"bufferView":7,
			"componentType":5126,
			"count":32,
			"type":"VEC2"
		},
		{
			"bufferView":8,
			"componentType":5126,
			"count":32,
			"type":"VEC4"
		},
		{
			"bufferView":9,
			"componentType":5123,
			"count":60,
			"type":"SCALAR"
		},
		{
			"bufferView":10,
			"componentType":5126,
			"count":106,
			"max":[
				0.2863076329231262,
				0.07018041610717773,
				1.0127474069595337
			],
			"min":[
				-0.2863076329231262,
				-0.5750653743743896,
				1.0027474164962769
			],
			"type":"VEC3"
		},
		{
			"bufferView":11,
			"componentType":5126,
			"count":106,
			"type":"VEC3"
		},
		{
			"bufferView":12,
			"componentType":5126,
			"count":106,
			"type":"VEC2"
		},
		{
			"bufferView":13,
			"componentType":5126,
			"count":106,
			"type":"VEC4"
		},
		{
			"bufferView":14,
			"componentType":5123,
			"count":204,
			"type":"SCALAR"
		},
		{
			"bufferView":15,
			"componentType":5126,
			"count":384,
			"max":[
				0.25504085421562195,
				0.3047487437725067,
				0.25504085421562195
			],
			"min":[
				-0.25504085421562195,
				-0.3047487437725067,
				-0.25504085421562195
			],
			"type":"VEC3"
		},
		{
			"bufferView":16,
			"componentType":5126,
			"count":384,
			"type":"VEC3"
		},
		{
			"bufferView":17,
			"componentType":5126,
			"count":384,
			"type":"VEC2"
		},
		{
			"bufferView":18,
			"componentType":5126,
			"count":384,
			"type":"VEC4"
		},
		{
			"bufferView":19,
			"componentType":5123,
			"count":744,
			"type":"SCALAR"
		},
		{
			"bufferView":20,
			"componentType":5126,
			"count":48,
			"max":[
				0.41788676381111145,
				0.41788676381111145,
				0.41788676381111145
			],
			"min":[
				-0.41788676381111145,
				-0.41788676381111145,
				-0.41788676381111145
			],
			"type":"VEC3"
		},
		{
			"bufferView":21,
			"componentType":5126,
			"count":48,
			"type":"VEC3"
		},
		{
			"bufferView":22,
			"componentType":5126,
			"count":48,
			"type":"VEC2"
		},
		{
			"bufferView":23,
			"componentType":5126,
			"count":48,
			"type":"VEC4"
		},
		{
			"bufferView":24,
			"componentType":5123,
			"count":72,
			"type":"SCALAR"
		},
		{
			"bufferView":25,
			"componentType":5126,
			"count":48,
			"max":[
				0.41788676381111145,
				0.41788676381111145,
				0.41788676381111145
			],
			"min":[
				-0.41788676381111145,
				-0.41788676381111145,
				-0.41788676381111145
			],
			"type":"VEC3"
		},
		{
			"bufferView":26,
			"componentType":5126,
			"count":48,
			"type":"VEC3"
		},
		{
			"bufferView":27,
			"componentType":5126,
			"count":48,
			"type":"VEC2"
		},
		{
			"bufferView":28,
			"componentType":5126,
			"count":48,
			"type":"VEC4"
		},
		{
			"bufferView":29,
			"componentType":5126,
			"count":124,
			"max":[
				0.3223174214363098,
				0.10713759064674377,
				1.0127474069595337
			],
			"min":[
				-0.3223174214363098,
				-0.9676862955093384,
				1.0027474164962769
			],
			"type":"VEC3"
		},
		{
			"bufferView":30,
			"componentType":5126,
			"count":124,
			"type":"VEC3"
		},
		{
			"bufferView":31,
			"componentType":5126,
			"count":124,
			"type":"VEC2"
		},
		{
			"bufferView":32,
			"componentType":5126,
			"count":124,
			"type":"VEC4"
		},
		{
			"bufferView":33,
			"componentType":5123,
			"count":240,
			"type":"SCALAR"
		},
		{
			"bufferView":34,
			"componentType":5126,
			"count":48,
			"max":[
				0.41788676381111145,
				0.41788676381111145,
				0.41788676381111145
			],
			"min":[
				-0.41788676381111145,
				-0.41788676381111145,
				-0.41788676381111145
			],
			"type":"VEC3"
		},
		{
			"bufferView":35,
			"componentType":5126,
			"count":48,
			"type":"VEC3"
		},
		{
			"bufferView":36,
			"componentType":5126,
			"count":48,
			"type":"VEC2"
		},
		{
			"bufferView":37,
			"componentType":5126,
			"count":48,
			"type":"VEC4"
		},
		{
			"bufferView":38,
			"componentType":5126,
			"count":48,
			"max":[
				0.41788676381111145,
				0.41788676381111145,
				0.41788676381111145
			],
			"min":[
				-0.41788676381111145,
				-0.41788676381111145,
				-0.41788676381111145
			],
			"type":"VEC3"
		},
		{
			"bufferView":39,
			"componentType":5126,
			"count":48,
			"type":"VEC3"
		},
		{
			"bufferView":40,
			"componentType":5126,
			"count":48,
			"type":"VEC2"
		},
		{
			"bufferView":41,
			"componentType":5126,
			"count":48,
			"type":"VEC4"
		},
		{
			"bufferView":42,
			"componentType":5126,
			"count":48,
			"max":[
				0.41788676381111145,
				0.41788676381111145,
				0.41788676381111145
			],
			"min":[
				-0.41788676381111145,
				-0.41788676381111145,
				-0.41788676381111145
			],
			"type":"VEC3"
		},
		{
			"bufferView":43,
			"componentType":5126,
			"count":48,
			"type":"VEC3"
		},
		{
			"bufferView":44,
			"componentType":5126,
			"count":48,
			"type":"VEC2"
		},
		{
			"bufferView":45,
			"componentType":5126,
			"count":48,
			"type":"VEC4"
		},
		{
			"bufferView":46,
			"componentType":5126,
			"count":48,
			"max":[
				0.41788676381111145,
				0.41788676381111145,
				0.41788676381111145
			],
			"min":[
				-0.41788676381111145,
				-0.41788676381111145,
				-0.41788676381111145
			],
			"type":"VEC3"
		},
		{
			"bufferView":47,
			"componentType":5126,
			"count":48,
			"type":"VEC3"
		},
		{
			"bufferView":48,
			"componentType":5126,
			"count":48,
			"type":"VEC2"
		},
		{
			"bufferView":49,
			"componentType":5126,
			"count":48,
			"type":"VEC4"
		}
	],
	"bufferViews":[
		{
			"buffer":0,
			"byteLength":17784,
			"byteOffset":0,
			"target":34962
		},
		{
			"buffer":0,
			"byteLength":17784,
			"byteOffset":17784,
			"target":34962
		},
		{
			"buffer":0,
			"byteLength":11856,
			"byteOffset":35568,
			"target":34962
		},
		{
			"buffer":0,
			"byteLength":23712,
			"byteOffset":47424,
			"target":34962
		},
		{
			"buffer":0,
			"byteLength":3456,
			"byteOffset":71136,
			"target":34963
		},
		{
			"buffer":0,
			"byteLength":384,
			"byteOffset":74592,
			"target":34962
		},
		{
			"buffer":0,
			"byteLength":384,
			"byteOffset":74976,
			"target":34962
		},
		{
			"buffer":0,
			"byteLength":256,
			"byteOffset":75360,
			"target":34962
		},
		{
			"buffer":0,
			"byteLength":512,
			"byteOffset":75616,
			"target":34962
		},
		{
			"buffer":0,
			"byteLength":120,
			"byteOffset":76128,
			"target":34963
		},
		{
			"buffer":0,
			"byteLength":1272,
			"byteOffset":76248,
			"target":34962
		},
		{
			"buffer":0,
			"byteLength":1272,
			"byteOffset":77520,
			"target":34962
		},
		{
			"buffer":0,
			"byteLength":848,
			"byteOffset":78792,
			"target":34962
		},
		{
			"buffer":0,
			"byteLength":1696,
			"byteOffset":79640,
			"target":34962
		},
		{
			"buffer":0,
			"byteLength":408,
			"byteOffset":81336,
			"target":34963
		},
		{
			"buffer":0,
			"byteLength":4608,
			"byteOffset":81744,
			"target":34962
		},
		{
			"buffer":0,
			"byteLength":4608,
			"byteOffset":86352,
			"target":34962
		},
		{
			"buffer":0,
			"byteLength":3072,
			"byteOffset":90960,
			"target":34962
		},
		{
			"buffer":0,
			"byteLength":6144,
			"byteOffset":94032,
			"target":34962
		},
		{
			"buffer":0,
			"byteLength":1488,
			"byteOffset":100176,
			"target":34963
		},
		{
			"buffer":0,
			"byteLength":576,
			"byteOffset":101664,
			"target":34962
		},
		{
			"buffer":0,
			"byteLength":576,
			"byteOffset":102240,
			"target":34962
		},
		{
			"buffer":0,
			"byteLength":384,
			"byteOffset":102816,
			"target":34962
		},
		{
			"buffer":0,
			"byteLength":768,
			"byteOffset":103200,
			"target":34962
		},
		{
			"buffer":0,
			"byteLength":144,
			"byteOffset":103968,
			"target":34963
		},
		{
			"buffer":0,
			"byteLength":576,
			"byteOffset":104112,
			"target":34962
		},
		{
			"buffer":0,
			"byteLength":576,
			"byteOffset":104688,
			"target":34962
		},
		{
			"buffer":0,
			"byteLength":384,
			"byteOffset":105264,
			"target":34962
		},
		{
			"buffer":0,
			"byteLength":768,
			"byteOffset":105648,
			"target":34962
		},
		{
			"buffer":0,
			"byteLength":1488,
			"byteOffset":106416,
			"target":34962
		},
		{
			"buffer":0,
			"byteLength":1488,
			"byteOffset":107904,
			"target":34962
		},
		{
			"buffer":0,
			"byteLength":992,
			"byteOffset":109392,
			"target":34962
		},
		{
			"buffer":0,
			"byteLength":1984,
			"byteOffset":110384,
			"target":34962
		},
		{
			"buffer":0,
			"byteLength":480,
			"byteOffset":112368,
			"target":34963
		},
		{
			"buffer":0,
			"byteLength":576,
			"byteOffset":112848,
			"target":34962
		},
		{
			"buffer":0,
			"byteLength":576,
			"byteOffset":113424,
			"target":34962
		},
		{
			"buffer":0,
			"byteLength":384,
			"byteOffset":114000,
			"target":34962
		},
		{
			"buffer":0,
			"byteLength":768,
			"byteOffset":114384,
			"target":34962
		},
		{
			"buffer":0,
			"byteLength":576,
			"byteOffset":115152,
			"target":34962
		},
		{
			"buffer":0,
			"byteLength":576,
			"byteOffset":115728,
			"target":34962
		},
		{
			"buffer":0,
			"byteLength":384,
			"byteOffset":116304,
			"target":34962
		},
		{
			"buffer":0,
			"byteLength":768,
			"byteOffset":116688,
			"target":34962
		},
		{
			"buffer":0,
			"byteLength":576,
			"byteOffset":117456,
			"target":34962
		},
		{
			"buffer":0,
			"byteLength":576,
			"byteOffset":118032,
			"target":34962
		},
		{
			"buffer":0,
			"byteLength":384,
			"byteOffset":118608,
			"target":34962
		},
		{
			"buffer":0,
			"byteLength":768,
			"byteOffset":118992,
			"target":34962
		},
		{
			"buffer":0,
			"byteLength":576,
			"byteOffset":119760,
			"target":34962
		},
		{
			"buffer":0,
			"byteLength":576,
			"byteOffset":120336,
			"target":34962
		},
		{
			"buffer":0,
			"byteLength":384,
			"byteOffset":120912,
			"target":34962
		},
		{
			"buffer":0,
			"byteLength":768,
			"byteOffset":121296,
			"target":34962
		}
	],
	"samplers":[
		{
			"magFilter":9729,
			"minFilter":9987,
			"wrapS":33071,
			"wrapT":33071
		},
		{
			"magFilter":9729,
			"minFilter":9987
		}
	],
	"buffers":[
		{
			"byteLength":122064,
			"uri":"playerBase.bin"
		}
	]
}
